<?xml version="1.0" encoding="UTF-8" standalone="no"?><!DOCTYPE svg PUBLIC "-//W3C//DTD SVG 1.1//EN"
    "http://www.w3.org/Graphics/SVG/1.1/DTD/svg11.dtd">
<svg width="100%" height="100%" viewBox="0 0 450 450" version="1.1"
    xmlns="http://www.w3.org/2000/svg" xml:space="preserve"
    style="fill-rule:evenodd;clip-rule:evenodd;stroke-linejoin:round;stroke-miterlimit:2;"><g><path d="M111.555,81.231c-0,-1.658 0.658,-3.248 1.83,-4.42c1.172,-1.172 2.762,-1.831 4.42,-1.831c32.345,0 180.475,0 212.982,0c1.681,0 3.29,0.677 4.466,1.877c1.176,1.201 1.819,2.824 1.783,4.504c-0.631,26.166 -5.094,49.563 -12.894,74.964c-5.753,18.736 -14.743,36.094 -26.522,51.741c-42.673,56.685 -119.601,69.878 -186.054,66.155c-0,-0 -0.009,-159.212 -0.011,-192.99Z" style="fill:url(#_Linear1);"/><path
    d="M111.44,368.726c-0.001,1.659 0.657,3.249 1.829,4.422c1.173,1.173 2.763,1.832 4.421,1.832c32.501,0 181.871,0 214.527,0c1.68,0 3.29,-0.676 4.466,-1.877c1.176,-1.201 1.818,-2.825 1.783,-4.505c-0.636,-26.165 -5.13,-49.562 -12.983,-74.962c-5.793,-18.736 -14.844,-36.094 -26.704,-51.742c-42.966,-56.684 -120.304,-69.878 -187.213,-66.154c-0,-0 -0.104,159.2 -0.126,192.986Z"
    style="fill:url(#_Linear2);" /></g>
    <defs><linearGradient id="_Linear1" x1="0" y1="0" x2="1" y2="0" gradientUnits="userSpaceOnUse" gradientTransform="matrix(228.793,0.734035,0.649818,-202.543,110.485,174.349)"><stop offset="0" style="stop-color:#6dcef6;stop-opacity:1"/><stop
        offset="0.45" style="stop-color:#71c0f5;stop-opacity:1" /><stop offset="1"
        style="stop-color:#7b9ff4;stop-opacity:1" /></linearGradient>
        <linearGradient id="_Linear2" x1="0" y1="0" x2="1" y2="0" gradientUnits="userSpaceOnUse"
            gradientTransform="matrix(225.943,2.59242,-2.59242,225.943,112.265,282.728)"><stop offset="0" style="stop-color:#93cce6;stop-opacity:1"/>
            <stop offset="0.56" style="stop-color:#c5dbe6;stop-opacity:1" />
            <stop offset="1" style="stop-color:#dae1e6;stop-opacity:1" /></linearGradient></defs></svg>