<?xml version="1.0" encoding="UTF-8" standalone="no"?><!DOCTYPE svg PUBLIC "-//W3C//DTD SVG 1.1//EN"
    "http://www.w3.org/Graphics/SVG/1.1/DTD/svg11.dtd">
<svg width="100%" height="100%" viewBox="0 0 450 450" version="1.1"
    xmlns="http://www.w3.org/2000/svg" xml:space="preserve"
    style="fill-rule:evenodd;clip-rule:evenodd;stroke-linejoin:round;stroke-miterlimit:2;"><g><path d="M111.555,81.231c-0,-1.658 0.658,-3.248 1.83,-4.42c1.172,-1.172 2.762,-1.831 4.42,-1.831c32.345,0 180.475,0 212.982,0c1.681,0 3.29,0.677 4.466,1.877c1.176,1.201 1.819,2.824 1.783,4.504c-0.631,26.166 -5.094,49.563 -12.894,74.964c-5.753,18.736 -14.743,36.094 -26.522,51.741c-42.673,56.685 -119.601,69.878 -186.054,66.155c-0,-0 -0.009,-159.212 -0.011,-192.99Z" style="fill:url(#_Linear1);"/><path
    d="M111.44,368.726c-0.001,1.659 0.657,3.249 1.829,4.422c1.173,1.173 2.763,1.832 4.421,1.832c32.501,0 181.871,0 214.527,0c1.68,0 3.29,-0.676 4.466,-1.877c1.176,-1.201 1.818,-2.825 1.783,-4.505c-0.636,-26.165 -5.13,-49.562 -12.983,-74.962c-5.793,-18.736 -14.844,-36.094 -26.704,-51.742c-42.966,-56.684 -120.304,-69.878 -187.213,-66.154c-0,-0 -0.104,159.2 -0.126,192.986Z"
    style="fill:url(#_Linear2);" /></g>
    <g><clipPath id="_clip3"><path d="M195.076,272.637l-22.025,-45.2c-5.917,-11.998 -12.984,-17.751 -22.353,-17.751c-11.998,0 -20.052,8.876 -20.052,22.189c-0,14.299 9.533,24.983 22.353,24.983c8.547,-0 14.793,-4.109 17.423,-11.67l17.258,39.611l-20.053,54.569c-3.287,9.204 -4.766,15.285 -4.766,20.381c-0,2.958 0.822,4.93 2.301,6.081l29.914,-64.43l29.914,64.43c1.479,-1.151 2.301,-3.123 2.301,-6.081c-0,-5.096 -1.48,-11.341 -4.767,-20.381l-20.052,-54.569l17.258,-39.611c2.63,7.561 8.876,11.67 17.422,11.67c12.821,-0 22.354,-10.684 22.354,-25.312c-0,-12.984 -8.054,-21.86 -20.052,-21.86c-9.369,0 -16.437,5.588 -22.354,17.751l-22.024,45.2Zm44.706,-54.568c7.232,-0 11.506,4.93 11.506,12.984c-0,9.862 -6.082,16.929 -14.464,16.929c-6.246,0 -10.848,-4.93 -10.848,-11.669c-0,-10.026 6.246,-18.244 13.806,-18.244Zm-89.413,-0c7.89,-0 13.807,8.218 13.807,18.901c-0,6.082 -4.931,11.012 -10.848,11.012c-8.383,0 -14.464,-7.231 -14.464,-17.093c0,-7.89 4.273,-12.82 11.505,-12.82Z" clip-rule="nonzero"/></clipPath>
        <g clip-path="url(#_clip3)"><g opacity="0.34"><path d="M118.209,371.482c-0,1.657 0.658,3.247 1.83,4.419c1.173,1.173 2.762,1.831 4.42,1.831c32.345,0 180.475,0 212.982,0c1.681,0 3.29,-0.676 4.466,-1.877c1.176,-1.2 1.819,-2.824 1.783,-4.504c-0.631,-26.165 -5.094,-49.563 -12.894,-74.964c-5.753,-18.736 -14.742,-36.093 -26.522,-51.741c-42.673,-56.685 -119.601,-69.878 -186.054,-66.154c-0,-0 -0.009,159.212 -0.011,192.99Z" style="fill:url(#_Linear4);"/></g></g></g>
    <g><clipPath id="_clip5"><path d="M190.208,270.022l-22.025,-45.2c-5.917,-11.998 -12.984,-17.751 -22.353,-17.751c-11.998,0 -20.052,8.876 -20.052,22.189c-0,14.299 9.533,24.983 22.353,24.983c8.547,-0 14.793,-4.109 17.422,-11.67l17.258,39.611l-20.052,54.569c-3.287,9.204 -4.766,15.285 -4.766,20.38c-0,2.959 0.822,4.931 2.301,6.082l29.914,-64.43l29.914,64.43c1.479,-1.151 2.301,-3.123 2.301,-6.082c-0,-5.095 -1.48,-11.341 -4.767,-20.38l-20.052,-54.569l17.258,-39.611c2.63,7.561 8.875,11.67 17.422,11.67c12.821,-0 22.354,-10.684 22.354,-25.312c-0,-12.984 -8.054,-21.86 -20.053,-21.86c-9.368,0 -16.436,5.588 -22.353,17.751l-22.024,45.2Zm44.706,-54.569c7.232,0 11.505,4.931 11.505,12.985c0,9.862 -6.081,16.929 -14.463,16.929c-6.246,0 -10.848,-4.93 -10.848,-11.669c-0,-10.026 6.245,-18.245 13.806,-18.245Zm-89.413,0c7.89,0 13.807,8.219 13.807,18.902c-0,6.082 -4.931,11.012 -10.848,11.012c-8.383,0 -14.464,-7.232 -14.464,-17.093c-0,-7.89 4.273,-12.821 11.505,-12.821Z" clip-rule="nonzero"/></clipPath>
        <g clip-path="url(#_clip5)"><path d="M113.341,368.867c-0,1.657 0.658,3.247 1.83,4.419c1.172,1.173 2.762,1.831 4.42,1.831c32.345,0 180.475,0 212.982,0c1.681,0 3.29,-0.676 4.466,-1.877c1.176,-1.201 1.819,-2.824 1.783,-4.504c-0.631,-26.165 -5.094,-49.563 -12.894,-74.964c-5.753,-18.736 -14.743,-36.094 -26.522,-51.741c-42.673,-56.685 -119.601,-69.878 -186.054,-66.155c-0,0 -0.009,159.213 -0.011,192.991Z" style="fill:url(#_Linear6);"/>
            <path
                d="M113.341,368.867c-0,1.657 0.658,3.247 1.83,4.419c1.172,1.173 2.762,1.831 4.42,1.831c32.345,0 180.475,0 212.982,0c1.681,0 3.29,-0.676 4.466,-1.877c1.176,-1.201 1.819,-2.824 1.783,-4.504c-0.631,-26.165 -5.094,-49.563 -12.894,-74.964c-5.753,-18.736 -14.743,-36.094 -26.522,-51.741c-42.673,-56.685 -119.601,-69.878 -186.054,-66.155c-0,0 -0.009,159.213 -0.011,192.991Z"
                style="fill:#7b9ff4;" /></g></g>
    <defs><linearGradient id="_Linear1" x1="0" y1="0" x2="1" y2="0" gradientUnits="userSpaceOnUse" gradientTransform="matrix(228.793,0.734035,0.649818,-202.543,110.485,174.349)"><stop offset="0" style="stop-color:#6dcef6;stop-opacity:1"/><stop
        offset="0.45" style="stop-color:#71c0f5;stop-opacity:1" /><stop offset="1"
        style="stop-color:#7b9ff4;stop-opacity:1" /></linearGradient>
        <linearGradient id="_Linear2" x1="0" y1="0" x2="1" y2="0" gradientUnits="userSpaceOnUse"
            gradientTransform="matrix(225.943,2.59242,-2.59242,225.943,112.265,282.728)"><stop offset="0" style="stop-color:#93cce6;stop-opacity:1"/>
            <stop offset="0.56" style="stop-color:#c5dbe6;stop-opacity:1" />
            <stop offset="1" style="stop-color:#dae1e6;stop-opacity:1" /></linearGradient>
        <linearGradient id="_Linear4" x1="0" y1="0" x2="1" y2="0" gradientUnits="userSpaceOnUse"
            gradientTransform="matrix(-77.2919,-121.435,107.503,-68.4242,234.336,359.508)"><stop offset="0" style="stop-color:#6dcef6;stop-opacity:1"/>
            <stop offset="0.45" style="stop-color:#71c0f5;stop-opacity:1" />
            <stop offset="1" style="stop-color:#7b9ff4;stop-opacity:1" /></linearGradient>
        <linearGradient id="_Linear6" x1="0" y1="0" x2="1" y2="0" gradientUnits="userSpaceOnUse"
            gradientTransform="matrix(-77.2919,-121.435,107.503,-68.4242,229.468,356.893)"><stop offset="0" style="stop-color:#6dcef6;stop-opacity:1"/>
            <stop offset="0.45" style="stop-color:#71c0f5;stop-opacity:1" />
            <stop offset="1" style="stop-color:#7b9ff4;stop-opacity:1" /></linearGradient></defs></svg>